HIERARCHY
ROOT Pelvis
{
	OFFSET 0.000000 0.000000 0.000000
	CHANNELS 6 Xposition Yposition Zposition Xrotation Yrotation Zrotation
	JOINT LeftUpLeg_virtual
	{
		OFFSET 0.000000 0.000000 0.000000
		CHANNELS 3 Xrotation Yrotation Zrotation
		JOINT LeftUpLeg
		{
			OFFSET 8.479700 -4.795502 -0.379100
			CHANNELS 3 Xrotation Yrotation Zrotation
			JOINT LeftLeg
			{
				OFFSET 0.024144 -32.555107 0.112900
				CHANNELS 3 Xrotation Yrotation Zrotation
				JOINT LeftFoot
				{
					OFFSET -0.024144 -32.638630 -3.012600
					CHANNELS 3 Xrotation Yrotation Zrotation
					JOINT LeftToeBase
					{
						OFFSET 0.970200 -13.225400 11.864200
						CHANNELS 3 Xrotation Yrotation Zrotation
						End Site
						{
							OFFSET 0 0 0
						}
					}
				}
			}
		}
	}
	JOINT RightUpLeg_virtual
	{
		OFFSET 0.000000 0.000000 0.000000
		CHANNELS 3 Xrotation Yrotation Zrotation
		JOINT RightUpLeg
		{
			OFFSET -8.479700 -4.795502 -0.379100
			CHANNELS 3 Xrotation Yrotation Zrotation
			JOINT RightLeg
			{
				OFFSET -0.023144 -32.555092 0.112900
				CHANNELS 3 Xrotation Yrotation Zrotation
				JOINT RightFoot
				{
					OFFSET 0.023144 -32.638641 -3.012700
					CHANNELS 3 Xrotation Yrotation Zrotation
					JOINT RightToeBase
					{
						OFFSET -0.970200 -13.225400 11.864200
						CHANNELS 3 Xrotation Yrotation Zrotation
						End Site
						{
							OFFSET 0 0 0
						}
					}
				}
			}
		}
	}
	JOINT Hips_virtual
	{
		OFFSET 0.000000 0.000000 0.000000
		CHANNELS 3 Xrotation Yrotation Zrotation
		JOINT Hips
		{
			OFFSET -0.000000 -0.000000 -0.000000
			CHANNELS 3 Xrotation Yrotation Zrotation
			JOINT Spine
			{
				OFFSET 0.000000 7.722000 1.166200
				CHANNELS 3 Xrotation Yrotation Zrotation
				JOINT Spine1
				{
					OFFSET 0.000000 12.024101 0.248800
					CHANNELS 3 Xrotation Yrotation Zrotation
					JOINT Spine2
					{
						OFFSET 0.000000 11.502998 -0.491200
						CHANNELS 3 Xrotation Yrotation Zrotation
						JOINT Neck_virtual
						{
							OFFSET 0.000000 0.000000 0.000000
							CHANNELS 3 Xrotation Yrotation Zrotation
							JOINT Neck
							{
								OFFSET 0.000000 18.430702 -3.123100
								CHANNELS 3 Xrotation Yrotation Zrotation
								JOINT Head
								{
									OFFSET 0.000000 9.051102 1.034000
									CHANNELS 3 Xrotation Yrotation Zrotation
									End Site
									{
										OFFSET 0 0 0
									}
								}
							}
						}
						JOINT LeftShoulder_virtual
						{
							OFFSET 0.000000 0.000000 0.000000
							CHANNELS 3 Xrotation Yrotation Zrotation
							JOINT LeftShoulder
							{
								OFFSET 6.197800 13.665199 -4.064700
								CHANNELS 3 Xrotation Yrotation Zrotation
								JOINT LeftArm
								{
									OFFSET 7.778100 -0.187103 -1.709300
									CHANNELS 3 Xrotation Yrotation Zrotation
									JOINT LeftForeArm
									{
										OFFSET 22.049376 0.000000 0.000000
										CHANNELS 3 Xrotation Yrotation Zrotation
										JOINT LeftHand
										{
											OFFSET 23.009392 0.000000 0.000000
											CHANNELS 3 Xrotation Yrotation Zrotation
											End Site
											{
												OFFSET 0 0 0
											}
										}
									}
								}
							}
						}
						JOINT RightShoulder_virtual
						{
							OFFSET 0.000000 0.000000 0.000000
							CHANNELS 3 Xrotation Yrotation Zrotation
							JOINT RightShoulder
							{
								OFFSET -6.197800 13.665199 -4.064700
								CHANNELS 3 Xrotation Yrotation Zrotation
								JOINT RightArm
								{
									OFFSET -7.778100 -0.187103 -1.709300
									CHANNELS 3 Xrotation Yrotation Zrotation
									JOINT RightForeArm
									{
										OFFSET -22.049376 0.000000 0.000000
										CHANNELS 3 Xrotation Yrotation Zrotation
										JOINT RightHand
										{
											OFFSET -23.009392 0.000000 0.000000
											CHANNELS 3 Xrotation Yrotation Zrotation
											End Site
											{
												OFFSET 0 0 0
											}
										}
									}
								}
							}
						}
					}
				}
			}
		}
	}
}
MOTION
Frames: 10
Frame Time: 0.03333333
1.139654 80.265030 -40.352203 0.000000 0.000000 0.000000 168.754604 -64.238510 168.461862 -30.913440 3.042120 15.184742 39.622286 -1.209726 -2.173956 -7.639958 1.602133 -5.082542 0.000000 0.000000 0.000000 168.754604 -64.238510 168.461862 -13.547012 -11.777318 8.123718 22.270786 11.465867 1.236073 -11.490402 -0.372791 -12.128840 0.000000 0.000000 0.000000 168.754604 -64.238510 168.461862 0.000000 -0.000001 0.000000 4.928380 1.825098 4.384147 -5.203247 2.467262 -3.030996 0.000000 0.000000 0.000000 -5.047560 2.231922 -3.347159 0.930291 23.548870 10.139637 0.000000 0.000000 0.000000 -5.047560 2.231922 -3.347159 1.079196 -0.344043 0.608159 7.615778 0.677534 -69.161710 8.512040 -19.175261 -8.473990 0.000000 0.000000 0.000000 -5.047560 2.231922 -3.347159 2.374284 -3.484716 16.761271 13.068530 30.204005 51.934771 13.595681 26.328815 -0.878535 0.000000 0.000000 0.000000 
0.901274 80.286743 -40.934315 0.000000 0.000000 0.000000 169.991305 -61.330079 169.833036 -30.893099 -0.244147 12.985209 39.295403 -1.745791 -2.153776 -7.371494 1.977019 -6.135118 0.000000 0.000000 0.000000 169.991305 -61.330079 169.833036 -12.971034 -10.533840 8.388398 21.789968 13.697118 1.800646 -11.036394 -0.827945 -13.133136 0.000000 0.000000 0.000000 169.991305 -61.330079 169.833036 0.000000 0.000000 0.000000 5.155990 2.073557 4.200078 -5.105464 2.660215 -2.985250 0.000000 0.000000 0.000000 -4.948699 2.420736 -3.321704 1.055483 22.542838 10.042757 0.000000 0.000000 0.000000 -4.948699 2.420736 -3.321704 1.084987 -0.270532 0.764947 7.759407 1.002653 -69.954558 9.038377 -17.908093 -8.643477 0.000000 0.000000 0.000000 -4.948699 2.420736 -3.321704 2.402570 -3.497405 16.751809 12.583206 31.110907 52.037763 13.766163 26.236993 -1.171554 0.000000 0.000000 0.000000 
0.646668 80.316071 -41.536030 0.000000 0.000000 0.000000 171.015902 -58.440041 171.007556 -30.798839 -3.853028 10.680350 38.556647 -1.818288 -2.079806 -7.163215 2.312118 -6.494578 0.000000 0.000000 0.000000 171.015902 -58.440041 171.007556 -12.344310 -9.300411 8.590264 21.259700 15.880562 2.356400 -10.562532 -1.257068 -14.081997 0.000000 0.000000 0.000000 171.015902 -58.440041 171.007556 0.000000 -0.000001 0.000000 5.353616 2.286766 3.916879 -4.955287 2.804419 -2.879611 0.000000 0.000000 0.000000 -4.801089 2.565714 -3.228154 1.136429 21.321714 9.663833 0.000000 0.000000 0.000000 -4.801089 2.565714 -3.228154 1.090521 -0.182192 0.891428 7.710972 1.275661 -70.804589 9.524831 -16.278602 -8.901435 0.000000 0.000000 0.000000 -4.801089 2.565714 -3.228154 2.414812 -3.468813 16.571753 11.779240 32.237803 52.296525 13.724225 25.885358 -1.445381 0.000000 0.000000 0.000000 
0.384764 80.342743 -42.143185 0.000000 0.000000 0.000000 171.872176 -55.556807 172.012304 -30.952901 -7.074953 8.684157 37.513305 -1.838247 -1.966047 -6.694650 2.650618 -7.358427 0.000000 0.000000 0.000000 171.872176 -55.556807 172.012304 -11.714463 -8.094447 8.734600 20.745446 18.017018 2.901337 -10.092390 -1.637718 -14.976177 0.000000 0.000000 0.000000 171.872176 -55.556807 172.012304 0.000000 0.000001 0.000000 5.542697 2.481717 3.591707 -4.780151 2.924343 -2.745299 0.000000 0.000000 0.000000 -4.630334 2.689118 -3.101841 1.155753 19.904788 9.110450 0.000000 0.000000 0.000000 -4.630334 2.689118 -3.101841 1.095806 -0.075107 0.979790 7.590603 1.535486 -71.647353 10.023774 -14.551995 -9.196461 0.000000 0.000000 0.000000 -4.630334 2.689118 -3.101841 2.421332 -3.425017 16.328216 10.845225 33.443874 52.653597 13.606743 25.436939 -1.713349 0.000000 0.000000 0.000000 
0.114578 80.367661 -42.753643 0.000000 0.000000 0.000000 172.597350 -52.685798 172.884901 -31.548815 -9.994986 6.739011 36.402641 -2.463975 -1.881751 -5.838870 2.895472 -7.974747 0.000000 0.000000 0.000000 172.597350 -52.685798 172.884901 -11.080322 -6.920585 8.822774 20.247785 20.115418 3.426863 -9.630060 -1.977191 -15.813607 0.000000 0.000000 0.000000 172.597350 -52.685798 172.884901 0.000000 0.000003 0.000000 5.722502 2.656045 3.227787 -4.581750 3.020539 -2.584859 0.000000 0.000000 0.000000 -4.438203 2.790714 -2.945377 1.042706 18.117333 8.309466 0.000000 0.000000 0.000000 -4.438203 2.790714 -2.945377 1.101104 0.072339 0.986376 7.407078 1.790297 -72.430454 10.581908 -12.799776 -9.501894 0.000000 0.000000 0.000000 -4.438203 2.790714 -2.945377 2.426402 -3.376592 16.065230 9.859335 34.669753 53.082598 13.469799 24.958406 -1.980107 0.000000 0.000000 0.000000 
-0.172649 80.401550 -43.372669 0.000000 0.000000 0.000000 173.235153 -49.804920 173.682312 -31.999631 -12.380397 5.106001 35.127116 -3.416585 -1.831883 -5.655484 3.195516 -8.533293 0.000000 0.000000 0.000000 173.235153 -49.804920 173.682312 -10.395941 -5.774542 8.838176 19.708634 22.191449 3.929122 -9.152243 -2.263635 -16.583877 0.000000 0.000000 0.000000 173.235153 -49.804920 173.682312 0.000000 0.000002 0.000000 5.876355 2.802645 2.783104 -4.340191 3.082374 -2.375846 0.000000 0.000000 0.000000 -4.206304 2.861862 -2.734082 0.950732 16.316494 7.563393 0.000000 0.000000 0.000000 -4.206304 2.861862 -2.734082 1.107254 0.303887 0.807197 7.408442 2.071009 -72.955163 10.915635 -11.563112 -9.734064 0.000000 0.000000 0.000000 -4.206304 2.861862 -2.734082 2.431049 -3.326008 15.793146 8.839839 35.899225 53.578128 13.326713 24.465249 -2.246119 0.000000 0.000000 0.000000 
-0.466353 80.438164 -43.991444 0.000000 0.000000 0.000000 173.787087 -46.923885 174.394879 -32.554406 -13.881790 3.768966 33.562259 -5.186197 -1.827661 -5.369859 3.410249 -8.739276 0.000000 0.000000 0.000000 173.787087 -46.923885 174.394879 -9.695136 -4.674202 8.790109 19.162027 24.236265 4.406201 -8.671697 -2.484129 -17.288462 0.000000 0.000000 0.000000 173.787087 -46.923885 174.394879 0.000000 -0.000001 0.000000 6.025502 2.933217 2.310052 -4.083232 3.130078 -2.149331 0.000000 0.000000 0.000000 -3.960473 2.920521 -2.502846 0.914175 14.545212 6.864917 0.000000 0.000000 0.000000 -3.960473 2.920521 -2.502846 1.116053 0.569626 0.550652 7.494388 2.364228 -73.371654 11.148663 -10.549680 -9.933447 0.000000 0.000000 0.000000 -3.960473 2.920521 -2.502846 2.435613 -3.274271 15.515707 7.793489 37.124366 54.138764 13.182091 23.962469 -2.510769 0.000000 0.000000 0.000000 
-0.764567 80.471344 -44.613018 0.000000 0.000000 0.000000 174.261116 -44.058449 175.023557 -33.071475 -15.144990 2.619379 31.731727 -6.984980 -1.813690 -4.697994 3.594873 -9.096987 0.000000 0.000000 0.000000 174.261116 -44.058449 175.023557 -8.995721 -3.634215 8.688628 18.641528 26.240482 4.857494 -8.205218 -2.630587 -17.938833 0.000000 0.000000 0.000000 174.261116 -44.058449 175.023557 0.000000 0.000002 0.000000 6.177475 3.050837 1.833857 -3.823017 3.170211 -1.918941 0.000000 0.000000 0.000000 -3.711999 2.972067 -2.266647 1.045936 12.881304 6.238503 0.000000 0.000000 0.000000 -3.711999 2.972067 -2.266647 1.128075 0.848194 0.264309 7.633039 2.661687 -73.734925 11.313416 -9.654542 -10.121430 0.000000 0.000000 0.000000 -3.711999 2.972067 -2.266647 2.440282 -3.221731 15.234363 6.725008 38.339129 54.763767 13.038073 23.453592 -2.773336 0.000000 0.000000 0.000000 
-1.070081 80.494125 -45.245571 0.000000 0.000000 0.000000 174.662458 -41.243923 175.564904 -33.650030 -16.323717 1.505516 29.978001 -8.265798 -1.758838 -3.305864 3.753577 -9.925021 0.000000 0.000000 0.000000 174.662458 -41.243923 175.564904 -8.298147 -2.675637 8.557284 18.167799 28.253860 5.269087 -7.784745 -2.763616 -18.555650 0.000000 0.000000 0.000000 174.662458 -41.243923 175.564904 0.000000 0.000000 0.000000 6.335834 3.154089 1.377214 -3.568836 3.202056 -1.695124 0.000000 0.000000 0.000000 -3.469655 3.015526 -2.036391 1.389145 11.349656 5.665469 0.000000 0.000000 0.000000 -3.469655 3.015526 -2.036391 1.142906 1.131347 -0.033495 7.842788 2.954675 -74.044653 11.372334 -8.889045 -10.302803 0.000000 0.000000 0.000000 -3.469655 3.015526 -2.036391 2.445067 -3.168485 14.949336 5.639742 39.537742 55.452031 12.895111 22.942407 -3.033231 0.000000 0.000000 0.000000 
-1.379736 80.504700 -45.909328 0.000000 0.000000 0.000000 174.988190 -38.571062 176.014098 -34.244110 -17.336753 0.517162 28.160593 -9.386843 -1.682701 -1.771891 3.889208 -10.890443 0.000000 0.000000 0.000000 174.988190 -38.571062 176.014098 -7.578259 -1.801453 8.412161 17.701615 30.123935 5.649290 -7.408374 -2.811463 -19.136932 0.000000 0.000000 0.000000 174.988190 -38.571062 176.014098 0.000000 0.000003 0.000000 6.503952 3.226293 0.962201 -3.332906 3.215100 -1.491993 0.000000 0.000000 0.000000 -3.245038 3.039651 -1.825541 1.967952 9.973762 5.143721 0.000000 0.000000 0.000000 -3.245038 3.039651 -1.825541 1.160116 1.423510 -0.352705 8.211012 3.231024 -74.239840 11.193033 -8.407370 -10.459092 0.000000 0.000000 0.000000 -3.245038 3.039651 -1.825541 2.449879 -3.114360 14.659352 4.548044 40.712323 56.200026 12.752592 22.436089 -3.289733 0.000000 0.000000 0.000000 
